<svg id="svg" xmlns="http://www.w3.org/2000/svg" xmlns:xlink="http://www.w3.org/1999/xlink" width="400" height="400" viewBox="0, 0, 400,400" version="1.1"><g id="svgg"><path id="path0" d="M191.434 9.006 C 189.473 9.325,185.153 9.868,181.834 10.211 C 173.440 11.081,163.786 12.813,155.104 15.006 C 142.602 18.164,119.740 27.389,113.000 31.996 C 112.120 32.597,109.690 34.043,107.600 35.209 C 90.029 45.007,68.249 64.726,54.354 83.415 C 46.097 94.521,34.307 115.655,30.649 125.909 C 24.487 143.177,20.783 156.908,19.618 166.800 C 15.222 204.116,20.569 238.528,35.912 271.649 C 40.588 281.743,53.621 301.958,60.638 310.000 C 75.822 327.401,93.860 342.928,107.800 350.596 C 109.340 351.444,112.256 353.101,114.279 354.279 C 127.939 362.235,151.408 370.648,167.000 373.179 C 168.540 373.429,171.960 373.999,174.600 374.446 C 186.773 376.505,191.464 375.876,195.204 371.680 C 198.974 367.450,198.954 367.597,199.112 343.200 C 199.329 309.812,199.232 309.582,184.109 307.578 C 177.385 306.687,173.312 305.928,170.400 305.024 C 159.434 301.620,157.415 300.851,150.879 297.584 C 116.932 280.619,93.970 250.533,87.239 214.200 C 83.591 194.506,86.123 166.802,93.087 150.200 C 108.873 112.573,138.899 87.453,178.600 78.660 C 198.861 74.172,216.939 75.459,239.508 82.995 C 251.855 87.117,264.891 94.606,275.200 103.498 C 304.091 128.418,317.457 156.851,317.368 193.200 C 317.298 221.891,311.897 232.293,293.986 238.234 C 290.213 239.485,292.143 239.413,254.600 239.716 C 237.559 239.853,237.135 239.938,233.131 244.003 C 229.030 248.167,228.400 252.012,228.400 272.879 C 228.400 298.478,229.871 305.701,236.000 310.200 C 240.366 313.405,239.853 313.344,265.000 313.610 C 289.376 313.867,288.504 313.783,293.387 316.335 C 298.904 319.217,303.102 324.324,305.279 330.800 C 306.096 333.230,306.169 334.404,306.406 348.800 C 306.719 367.824,307.042 369.021,312.600 371.800 L 315.000 373.000 334.400 373.000 L 353.800 373.000 356.000 371.945 C 362.800 368.683,363.097 367.414,362.800 342.800 L 362.600 326.200 361.343 323.600 C 357.663 315.987,355.412 315.231,335.200 314.823 C 316.713 314.449,315.410 314.111,310.217 308.335 C 305.593 303.192,305.183 301.257,304.795 282.800 C 304.622 274.550,304.264 266.450,303.998 264.800 C 301.990 252.312,306.379 241.186,314.970 236.993 C 320.647 234.223,320.032 234.280,346.800 234.028 L 371.000 233.800 373.600 232.552 C 381.904 228.565,385.405 216.425,385.353 191.800 C 385.319 175.763,384.447 170.303,377.405 142.000 C 374.041 128.479,362.564 103.600,354.314 91.943 C 341.308 73.566,340.262 72.299,328.550 60.737 C 317.453 49.782,307.801 42.601,290.921 32.742 C 270.358 20.732,245.668 12.937,220.200 10.416 C 217.560 10.155,213.510 9.669,211.200 9.336 C 205.105 8.456,195.772 8.301,191.434 9.006 " stroke="none" fill="#d65745" fill-rule="evenodd"></path></g></svg>